PathFileType	4	(X/Y/Z)	C:\Users\italobelli\Desktop\GitHub\PTbot_officialCBL\Personal_Results\ABD22_noisy2.trc
DataRate	CameraRate	NumFrames	NumMarkers	Units	OrigDataRate	OrigDataStartFrame	OrigNumFrames
106.125000	106.125000	42	9	m	106.125000	744	850
Frame#	Time		gu		centelbow		EpL		centpxt8		centijc7		ij		ts		aa		ai
			X1	Y1	Z1	X2	Y2	Z2	X3	Y3	Z3	X4	Y4	Z4	X5	Y5	Z5	X6	Y6	Z6	X7	Y7	Z7	X8	Y8	Z8	X9	Y9	Z9

744	7.0012	-0.10255	0.0015366	0.15869	-0.12493	-0.23678	0.17672	-0.12804	-0.22812	0.20762	-0.046816	-0.15316	-0.008669	-0.046816	0.031938	-0.008669	0	0	0	-0.1276	0.028704	0.033352	-0.13416	0.035727	0.15223	-0.13736	-0.083821	0.044691
745	7.0106	-0.10255	0.0015253	0.15867	-0.12489	-0.23676	0.17693	-0.12802	-0.2281	0.20783	-0.046816	-0.15316	-0.008669	-0.046816	0.031938	-0.008669	0	0	0	-0.1276	0.028704	0.033344	-0.13416	0.035731	0.15222	-0.13739	-0.08382	0.044691
746	7.02	-0.10255	0.0015134	0.15864	-0.12485	-0.23675	0.17714	-0.128	-0.22809	0.20804	-0.046816	-0.15316	-0.008669	-0.046816	0.031938	-0.008669	0	0	0	-0.1276	0.028705	0.033335	-0.13416	0.035735	0.15221	-0.13741	-0.083819	0.04469
747	7.0294	-0.10255	0.001501	0.15862	-0.12481	-0.23673	0.17736	-0.12797	-0.22807	0.20826	-0.046816	-0.15316	-0.008669	-0.046816	0.031938	-0.008669	0	0	0	-0.12761	0.028705	0.033326	-0.13415	0.035739	0.1522	-0.13743	-0.083818	0.044688
748	7.0389	-0.10255	0.001488	0.1586	-0.12477	-0.23672	0.17759	-0.12795	-0.22806	0.20848	-0.046816	-0.15316	-0.008669	-0.046816	0.031938	-0.008669	0	0	0	-0.12761	0.028706	0.033317	-0.13415	0.035743	0.15219	-0.13745	-0.083817	0.044685
749	7.0483	-0.10256	0.0014746	0.15857	-0.12473	-0.23671	0.17781	-0.12792	-0.22804	0.2087	-0.046816	-0.15316	-0.008669	-0.046816	0.031938	-0.008669	0	0	0	-0.12761	0.028706	0.033308	-0.13415	0.035747	0.15218	-0.13748	-0.083815	0.044681
750	7.0577	-0.10256	0.0014607	0.15855	-0.12469	-0.23669	0.17804	-0.12789	-0.22803	0.20893	-0.046816	-0.15316	-0.008669	-0.046816	0.031938	-0.008669	0	0	0	-0.12761	0.028707	0.033298	-0.13414	0.035752	0.15217	-0.1375	-0.083813	0.044676
751	7.0671	-0.10256	0.0014463	0.15853	-0.12464	-0.23668	0.17828	-0.12786	-0.22801	0.20916	-0.046816	-0.15316	-0.008669	-0.046816	0.031938	-0.008669	0	0	0	-0.12762	0.028708	0.033288	-0.13414	0.035756	0.15216	-0.13753	-0.083811	0.04467
752	7.0766	-0.10256	0.0014316	0.1585	-0.12459	-0.23666	0.17851	-0.12783	-0.228	0.2094	-0.046816	-0.15316	-0.008669	-0.046816	0.031938	-0.008669	0	0	0	-0.12762	0.028708	0.033277	-0.13414	0.03576	0.15215	-0.13755	-0.083809	0.044663
753	7.086	-0.10256	0.0014165	0.15848	-0.12454	-0.23665	0.17875	-0.1278	-0.22798	0.20963	-0.046816	-0.15316	-0.008669	-0.046816	0.031938	-0.008669	0	0	0	-0.12762	0.028709	0.033266	-0.13413	0.035764	0.15214	-0.13757	-0.083806	0.044656
754	7.0954	-0.10255	0.001401	0.15845	-0.12449	-0.23663	0.17899	-0.12776	-0.22797	0.20987	-0.046816	-0.15316	-0.008669	-0.046816	0.031938	-0.008669	0	0	0	-0.12762	0.02871	0.033256	-0.13413	0.035768	0.15213	-0.1376	-0.083804	0.044648
755	7.1048	-0.10255	0.0013852	0.15843	-0.12444	-0.23662	0.17924	-0.12773	-0.22795	0.21011	-0.046816	-0.15316	-0.008669	-0.046816	0.031938	-0.008669	0	0	0	-0.12763	0.028711	0.033245	-0.13412	0.035773	0.15212	-0.13762	-0.083801	0.044639
756	7.1143	-0.10255	0.001369	0.1584	-0.12439	-0.2366	0.17948	-0.12769	-0.22794	0.21036	-0.046816	-0.15316	-0.008669	-0.046816	0.031938	-0.008669	0	0	0	-0.12763	0.028712	0.033233	-0.13412	0.035777	0.15211	-0.13764	-0.083798	0.04463
757	7.1237	-0.10255	0.0013526	0.15838	-0.12434	-0.23659	0.17973	-0.12765	-0.22792	0.2106	-0.046816	-0.15316	-0.008669	-0.046816	0.031938	-0.008669	0	0	0	-0.12763	0.028714	0.033222	-0.13411	0.035781	0.1521	-0.13767	-0.083795	0.04462
758	7.1331	-0.10255	0.0013359	0.15835	-0.12428	-0.23657	0.17998	-0.12761	-0.2279	0.21085	-0.046816	-0.15316	-0.008669	-0.046816	0.031938	-0.008669	0	0	0	-0.12763	0.028715	0.03321	-0.13411	0.035785	0.15209	-0.13769	-0.083792	0.044609
759	7.1425	-0.10255	0.001319	0.15833	-0.12423	-0.23656	0.18023	-0.12757	-0.22789	0.2111	-0.046816	-0.15316	-0.008669	-0.046816	0.031938	-0.008669	0	0	0	-0.12764	0.028716	0.033198	-0.1341	0.035789	0.15208	-0.13772	-0.083788	0.044598
760	7.1519	-0.10255	0.0013019	0.1583	-0.12417	-0.23654	0.18048	-0.12752	-0.22787	0.21135	-0.046816	-0.15316	-0.008669	-0.046816	0.031938	-0.008669	0	0	0	-0.12764	0.028717	0.033186	-0.1341	0.035794	0.15207	-0.13774	-0.083785	0.044586
761	7.1614	-0.10254	0.0012846	0.15827	-0.12411	-0.23653	0.18074	-0.12748	-0.22786	0.2116	-0.046816	-0.15316	-0.008669	-0.046816	0.031938	-0.008669	0	0	0	-0.12764	0.028718	0.033174	-0.13409	0.035798	0.15205	-0.13776	-0.083782	0.044574
762	7.1708	-0.10254	0.0012672	0.15825	-0.12406	-0.23651	0.18099	-0.12744	-0.22784	0.21186	-0.046816	-0.15316	-0.008669	-0.046816	0.031938	-0.008669	0	0	0	-0.12764	0.02872	0.033162	-0.13409	0.035802	0.15204	-0.13779	-0.083778	0.044562
763	7.1802	-0.10254	0.0012496	0.15822	-0.124	-0.2365	0.18125	-0.12739	-0.22783	0.21211	-0.046816	-0.15316	-0.008669	-0.046816	0.031938	-0.008669	0	0	0	-0.12764	0.028721	0.03315	-0.13408	0.035806	0.15203	-0.13781	-0.083774	0.044549
764	7.1896	-0.10253	0.0012319	0.15819	-0.12394	-0.23648	0.1815	-0.12735	-0.22781	0.21237	-0.046816	-0.15316	-0.008669	-0.046816	0.031938	-0.008669	0	0	0	-0.12765	0.028722	0.033138	-0.13407	0.03581	0.15202	-0.13784	-0.08377	0.044536
765	7.1991	-0.10253	0.0012141	0.15817	-0.12388	-0.23647	0.18176	-0.1273	-0.2278	0.21262	-0.046816	-0.15316	-0.008669	-0.046816	0.031938	-0.008669	0	0	0	-0.12765	0.028724	0.033126	-0.13407	0.035814	0.15201	-0.13786	-0.083767	0.044523
766	7.2085	-0.10253	0.0011963	0.15814	-0.12382	-0.23645	0.18202	-0.12725	-0.22778	0.21288	-0.046816	-0.15316	-0.008669	-0.046816	0.031938	-0.008669	0	0	0	-0.12765	0.028725	0.033113	-0.13406	0.035818	0.152	-0.13788	-0.083763	0.04451
767	7.2179	-0.10252	0.0011784	0.15812	-0.12376	-0.23644	0.18228	-0.12721	-0.22777	0.21313	-0.046816	-0.15316	-0.008669	-0.046816	0.031938	-0.008669	0	0	0	-0.12765	0.028727	0.033101	-0.13405	0.035822	0.15198	-0.13791	-0.083759	0.044496
768	7.2273	-0.10252	0.0011606	0.15809	-0.1237	-0.23642	0.18253	-0.12716	-0.22775	0.21339	-0.046816	-0.15316	-0.008669	-0.046816	0.031938	-0.008669	0	0	0	-0.12765	0.028728	0.033089	-0.13404	0.035826	0.15197	-0.13793	-0.083755	0.044482
769	7.2367	-0.10252	0.0011427	0.15806	-0.12364	-0.2364	0.18279	-0.12711	-0.22773	0.21365	-0.046816	-0.15316	-0.008669	-0.046816	0.031938	-0.008669	0	0	0	-0.12766	0.02873	0.033076	-0.13404	0.035829	0.15196	-0.13795	-0.083751	0.044468
770	7.2462	-0.10251	0.0011249	0.15804	-0.12359	-0.23639	0.18305	-0.12707	-0.22772	0.2139	-0.046816	-0.15316	-0.008669	-0.046816	0.031938	-0.008669	0	0	0	-0.12766	0.028731	0.033064	-0.13403	0.035833	0.15195	-0.13797	-0.083747	0.044454
771	7.2556	-0.10251	0.0011072	0.15801	-0.12353	-0.23637	0.1833	-0.12702	-0.2277	0.21416	-0.046816	-0.15316	-0.008669	-0.046816	0.031938	-0.008669	0	0	0	-0.12766	0.028732	0.033052	-0.13402	0.035836	0.15194	-0.138	-0.083743	0.044441
772	7.265	-0.1025	0.0010896	0.15799	-0.12347	-0.23636	0.18356	-0.12697	-0.22768	0.21441	-0.046816	-0.15316	-0.008669	-0.046816	0.031938	-0.008669	0	0	0	-0.12766	0.028734	0.03304	-0.13401	0.03584	0.15193	-0.13802	-0.083739	0.044427
773	7.2744	-0.10249	0.0010721	0.15796	-0.12341	-0.23634	0.18381	-0.12692	-0.22767	0.21466	-0.046816	-0.15316	-0.008669	-0.046816	0.031938	-0.008669	0	0	0	-0.12766	0.028735	0.033028	-0.134	0.035843	0.15192	-0.13804	-0.083735	0.044413
774	7.2839	-0.10249	0.0010547	0.15794	-0.12335	-0.23632	0.18407	-0.12688	-0.22765	0.21492	-0.046816	-0.15316	-0.008669	-0.046816	0.031938	-0.008669	0	0	0	-0.12766	0.028737	0.033016	-0.13399	0.035846	0.1519	-0.13806	-0.083731	0.044399
775	7.2933	-0.10248	0.0010375	0.15791	-0.12329	-0.2363	0.18432	-0.12683	-0.22763	0.21517	-0.046816	-0.15316	-0.008669	-0.046816	0.031938	-0.008669	0	0	0	-0.12766	0.028738	0.033004	-0.13399	0.035849	0.15189	-0.13808	-0.083727	0.044386
776	7.3027	-0.10248	0.0010205	0.15789	-0.12324	-0.23629	0.18457	-0.12679	-0.22761	0.21542	-0.046816	-0.15316	-0.008669	-0.046816	0.031938	-0.008669	0	0	0	-0.12766	0.028739	0.032993	-0.13398	0.035852	0.15188	-0.1381	-0.083723	0.044373
777	7.3121	-0.10247	0.0010038	0.15786	-0.12318	-0.23627	0.18482	-0.12674	-0.2276	0.21566	-0.046816	-0.15316	-0.008669	-0.046816	0.031938	-0.008669	0	0	0	-0.12766	0.028741	0.032981	-0.13397	0.035855	0.15187	-0.13812	-0.083719	0.04436
778	7.3216	-0.10246	0.00098727	0.15784	-0.12312	-0.23625	0.18506	-0.12669	-0.22758	0.21591	-0.046816	-0.15316	-0.008669	-0.046816	0.031938	-0.008669	0	0	0	-0.12767	0.028742	0.03297	-0.13396	0.035858	0.15186	-0.13814	-0.083716	0.044347
779	7.331	-0.10245	0.00097103	0.15781	-0.12307	-0.23623	0.18531	-0.12665	-0.22756	0.21615	-0.046816	-0.15316	-0.008669	-0.046816	0.031938	-0.008669	0	0	0	-0.12767	0.028743	0.032959	-0.13395	0.035861	0.15185	-0.13816	-0.083712	0.044335
780	7.3404	-0.10245	0.00095509	0.15779	-0.12301	-0.23621	0.18555	-0.12661	-0.22754	0.21639	-0.046816	-0.15316	-0.008669	-0.046816	0.031938	-0.008669	0	0	0	-0.12767	0.028744	0.032948	-0.13394	0.035863	0.15184	-0.13818	-0.083708	0.044323
781	7.3498	-0.10244	0.00093948	0.15777	-0.12296	-0.2362	0.18579	-0.12656	-0.22752	0.21663	-0.046816	-0.15316	-0.008669	-0.046816	0.031938	-0.008669	0	0	0	-0.12767	0.028746	0.032937	-0.13393	0.035865	0.15183	-0.1382	-0.083705	0.044311
782	7.3592	-0.10243	0.00092421	0.15774	-0.12291	-0.23618	0.18603	-0.12652	-0.2275	0.21687	-0.046816	-0.15316	-0.008669	-0.046816	0.031938	-0.008669	0	0	0	-0.12767	0.028747	0.032927	-0.13392	0.035867	0.15182	-0.13822	-0.083701	0.0443
783	7.3687	-0.10242	0.00090933	0.15772	-0.12286	-0.23616	0.18627	-0.12648	-0.22748	0.21711	-0.046816	-0.15316	-0.008669	-0.046816	0.031938	-0.008669	0	0	0	-0.12767	0.028748	0.032917	-0.1339	0.035869	0.15181	-0.13824	-0.083698	0.04429
784	7.3781	-0.10241	0.00089484	0.1577	-0.12281	-0.23614	0.1865	-0.12644	-0.22746	0.21734	-0.046816	-0.15316	-0.008669	-0.046816	0.031938	-0.008669	0	0	0	-0.12767	0.028749	0.032907	-0.13389	0.035871	0.1518	-0.13826	-0.083695	0.04428
785	7.3875	-0.1024	0.00088078	0.15768	-0.12276	-0.23612	0.18673	-0.1264	-0.22744	0.21756	-0.046816	-0.15316	-0.008669	-0.046816	0.031938	-0.008669	0	0	0	-0.12766	0.02875	0.032897	-0.13388	0.035873	0.15179	-0.13827	-0.083692	0.044271
